# xmcd
#
# Track frame offsets: 
#        150
#        11177
#        18333
#        34935
#        58060
#        76071
#        100416
#        124904
#        145224
#        166681
#        182985
#        199900
#        208998
#
# Disc length: 2980 seconds
#
# Revision: 0
# Processed by: cddbd v1.5.2PL0 Copyright (c) Steve Scherf et al.
# Submitted via: ExactAudioCopyFreeDBPlugin 1.0
#
DISCID=b90ba20d
DTITLE=May Erlewine - Love Labor
DYEAR=2009
DGENRE=Folk
TTITLE0=It's OK
TTITLE1=Running River
TTITLE2=The Turning
TTITLE3=I Love The City
TTITLE4=Winding Road
TTITLE5=Sweet Days
TTITLE6=Skyway Joe
TTITLE7=The Mourning
TTITLE8=Easy Now
TTITLE9=Take Me Home
TTITLE10=Song For Sam
TTITLE11=December Waltz
TTITLE12=Talkin'
EXTD=
EXTT0=
EXTT1=
EXTT2=
EXTT3=
EXTT4=
EXTT5=
EXTT6=
EXTT7=
EXTT8=
EXTT9=
EXTT10=
EXTT11=
EXTT12=
PLAYORDER=
